PathFileType	4	(X/Y/Z)	Patient4_TMGait_0pt4_02_left_27.trc.trc
DataRate	CameraRate	NumFrames	NumMarkers	Units	OrigDataRate	OrigDataStartFrame	OrigNumFrames
74.468085106383	74.468085106383	4	33	mm	74.468085106383	1	       141
Frame#	Time	Sacral			L.Shoulder			Chest			R.Shoulder			Neck			R.ASIS			L.ASIS			R.Thigh.Superior			R.Thigh.Lateral			R.Thigh.Inferior			R.Patella			L.Thigh.Superior			L.Thigh.Lateral			L.Thigh.Inferior			L.Patella			L.Shank.Superior			L.Shank.Lateral			L.Shank.Inferior			R.Shank.Superior			R.Shank.Lateral			R.Shank.Inferior			R.Heel			R.Midfoot.Superior			R.Midfoot.Lateral			R.Toe			L.Heel			L.Midfoot.Lateral			L.Midfoot.Superior			L.Toe			L.Elbow			L.Wrist			R.Elbow			R.Wrist			
		X1	Y1	Z1	X2	Y2	Z2	X3	Y3	Z3	X4	Y4	Z4	X5	Y5	Z5	X6	Y6	Z6	X7	Y7	Z7	X8	Y8	Z8	X9	Y9	Z9	X10	Y10	Z10	X11	Y11	Z11	X12	Y12	Z12	X13	Y13	Z13	X14	Y14	Z14	X15	Y15	Z15	X16	Y16	Z16	X17	Y17	Z17	X18	Y18	Z18	X19	Y19	Z19	X20	Y20	Z20	X21	Y21	Z21	X22	Y22	Z22	X23	Y23	Z23	X24	Y24	Z24	X25	Y25	Z25	X26	Y26	Z26	X27	Y27	Z27	X28	Y28	Z28	X29	Y29	Z29	X30	Y30	Z30	X31	Y31	Z31	X32	Y32	Z32	X33	Y33	Z33	

1	36.220000000000	906.563955521306	1005.119655290791	491.344646090576	1086.505008859213	1436.403376404711	309.080933228651	1191.362310747055	1367.332417937317	468.599940664770	1109.706503939058	1437.525832428381	644.566918025546	1070.909662874132	1496.207333828394	466.863791240643	1138.281017924744	943.399015374461	604.182496113388	1118.598683025012	963.134785698782	331.833939960164	1177.239404531681	740.999337218567	577.047702614446	1094.936702554171	633.715621498159	638.886419199601	1170.174244862332	579.847328928118	557.864517374706	1168.261980992605	492.643304745092	563.828243695352	1194.901727056978	769.323496118023	357.617072874865	1142.294845248836	644.878639440045	279.162417277921	1243.504488962234	578.236152322729	337.972559852463	1251.490742504769	490.178480932915	331.666199757150	1185.040773810720	424.355026403274	323.307139456884	1044.154654360604	381.280368545359	272.504684296052	1032.044713848662	250.943225955293	326.172487980000	1139.426680612729	404.214950630896	572.651808955830	1067.574850166836	303.072523832646	637.467014500030	1105.301151228968	206.401165261390	574.085075315316	967.873375498671	43.243241809184	550.450535277436	1139.123099264257	97.034799941031	583.707667128973	1051.961256094311	37.413571839990	624.103895358104	1260.296962339582	43.604584694992	610.135061331718	841.256488274662	182.893684512987	361.501948178004	900.716943107023	141.559223217675	279.977390475290	1006.125658248714	150.612876822401	303.249732257506	1086.172690425403	40.531992158215	270.721128967421	1055.079943765593	1084.192168762267	191.215204878720	1192.368142385793	859.086444692329	173.241535324188	1113.157663707909	1092.841086263142	778.089330802972	1286.267750510846	896.927766317624	763.316869584440	
2	36.233428571429	905.727695893728	1006.233089733889	493.664516395425	1085.609114889833	1436.147160433736	309.327423726003	1191.720857415421	1367.290357666610	468.034221599332	1112.011860538367	1438.352666264075	644.499157376868	1071.546524309458	1496.520272517336	466.721773016194	1138.234976816046	943.237865959784	604.612501905669	1116.204687700415	963.842234071214	332.294471898889	1175.376569169749	740.417372883036	576.638169250302	1092.478426868722	633.872240817057	639.144580750221	1166.509430360434	579.353404930367	557.587705002013	1163.902842211673	492.260701561189	563.590101606453	1194.201015248318	772.158344056048	358.164209843036	1142.760773140381	647.137331694972	279.822932570061	1245.051646724507	581.939161819514	337.961879269930	1254.734744959977	494.721352103626	331.693276998630	1191.186416189227	427.499827772888	322.832019738138	1052.795964886511	377.952423406415	272.416083295054	1047.976599430864	247.148338388301	324.944082738135	1134.786253445166	404.011703729003	572.531294200493	1062.816105835662	303.053199219063	637.535148730262	1100.100839638006	206.264086140272	573.964277542852	962.179382622974	43.213274834290	550.523691129943	1133.451379481084	97.036052299911	583.712832561162	1046.257151166267	37.439093530990	624.181361179073	1254.543500441797	43.547625573274	610.171145899783	862.299293611070	169.000635227473	360.968808314738	922.732803609717	131.757749794983	278.569271795956	1027.256129750221	146.152281144152	301.192060571404	1112.387474588094	41.494941704490	266.746391604907	1049.636770433314	1083.579936956813	194.136647271695	1172.953828826727	852.478938650131	174.834052673920	1121.572802259569	1094.883925026755	779.344020413974	1305.048791116189	912.398345620074	758.965744659315	
3	36.246857142857	904.882293959131	1007.323739498764	495.957260306862	1084.737471313939	1435.859965137639	309.542316112977	1192.096240760721	1367.209880933106	467.436112660947	1114.337361140219	1439.146793046927	644.393931981505	1072.198451514663	1496.803880414195	466.546549219226	1138.181260708084	943.051516128183	604.984303679062	1113.801209091612	964.518651508742	332.726048366360	1173.505609126078	739.831141722386	576.165753276808	1090.058732192319	634.017728674744	639.378194860715	1162.865983342155	578.862257761936	557.285749250104	1159.581843269893	491.873480359326	563.353622292612	1193.400676914340	774.858759030845	358.651884828133	1143.026985305149	649.298916207798	280.433728034925	1246.314798518021	585.463493901094	338.007048601153	1257.699955186893	499.154115562136	331.728750604338	1197.116759119277	430.601296933811	322.349496821646	1061.429658582268	374.467359416152	272.297790471479	1064.070289918313	243.340515746495	323.684916679852	1130.181031848347	403.793541334470	572.412668279311	1058.080183114937	303.021996916109	637.594952480681	1094.924035511698	206.117863309433	573.847199793913	956.512049338379	43.178828527200	550.593760463728	1127.805051050083	97.033676726742	583.713825227132	1040.580226061565	37.460778337220	624.256343488173	1248.820920558523	43.494564409204	610.206049783723	883.824596602694	154.967648554643	360.403175134825	945.174378323336	121.919458251108	277.124812339534	1048.681085329208	141.764135792005	299.107893181466	1138.899732317532	42.734431950857	262.738945231368	1044.259425016308	1082.962868895854	196.967930304358	1153.696378431400	846.107428819649	176.442481750649	1129.886676303697	1096.888572163953	780.494361318026	1323.508671952274	928.045494493655	754.490658051150	
4	36.260285714286	904.027286225029	1008.369477128317	498.182468023534	1083.916439295016	1435.520634078412	309.686341887157	1192.503049700412	1367.057609501881	466.766411294664	1116.696277012628	1439.875264289572	644.205886402323	1072.880604244124	1497.033312093688	466.299287095344	1138.113171903671	942.819228790663	605.241478393461	1111.392212879767	965.140341110725	333.086946544944	1171.630241595137	739.235947526487	575.581358964041	1087.715668434129	634.137273347148	639.557438282527	1159.277114117039	578.373695940121	556.931500023703	1155.346162029702	491.475134450250	563.108899523430	1192.403928593758	777.306031146673	359.034481204813	1142.950451385913	651.286253564399	280.932119757694	1247.069262200924	588.661749912107	338.139439697764	1260.151760209526	503.380777730071	331.774852935833	1202.632362318613	433.620067228594	321.860126627328	1070.018449223917	370.766429564482	272.118078492797	1080.332955135924	239.593436524892	322.396283717464	1125.655741056307	403.548111299947	572.289181713636	1053.402509471430	302.971727726048	637.634967658563	1089.803452020963	205.955466127189	573.733650217043	950.903847204278	43.139258420825	550.657850532163	1122.216617833648	97.024350779557	583.706130003982	1034.964867515935	37.476848848187	624.327687616305	1243.165476274934	43.448230977546	610.235244039555	906.043071637311	140.885052481750	359.776231364541	968.230035731450	112.159776146843	275.649233379147	1070.473138667752	137.598102747664	297.029229283541	1165.741686956086	44.508775460851	258.810049098817	1038.997403507680	1082.353964587379	199.614392086741	1134.852730427246	840.215391666200	178.065810679648	1138.005149346860	1098.809473843284	781.414730936972	1341.249747842746	943.942081927197	749.777112738016	
